<svg width="595.28px" height="841.89px" viewBox="0 0 595.28 841.89" xmlns="http://www.w3.org/2000/svg">
<rect width="100%" height="100%" fill="#98daeb"/>
<path d="M 0,0 L 200,0 C 200,0,200,0,200,0 L 200,841.89 C 200,841.89,200,841.89,200,841.89 L 0,841.89 C 0,841.89,0,841.89,0,841.89 L 0,0 C 0,0,0,0,0,0 Z" fill="#e6e6e6" />
<path d="M 0,0 L 200,0 C 200,0,200,0,200,0 L 200,54 C 200,54,200,54,200,54 L 0,54 C 0,54,0,54,0,54 L 0,0 C 0,0,0,0,0,0 Z" fill="#17abb3" />
<text x="47.891845703125" y="44.3625" style="font:bold 15px Arial,Helvetica,Arial,sans-serif;white-space:pre;letter-spacing:0px" fill="white">Sylvie </text>
<text x="95.426025390625" y="44.3625" style="font:bold 15px Arial,Helvetica,Arial,sans-serif;white-space:pre;letter-spacing:0px" fill="white">Loiseau</text>
<path d="M 0,52 L 200,52 C 200,52,200,52,200,52 L 200,121.975 C 200,121.975,200,121.975,200,121.975 C 140,149.975,60,149.975,0,121.975 C 0,121.975,0,121.975,0,121.975 L 0,52 C 0,52,0,52,0,52 Z" fill="#62ecf3" />
<path d="M 100,59 L 100,59 C 135.88,59,165,88.095,165,123.975 L 165,123.975 C 165,159.855,135.88,188.975,100,188.975 L 100,188.975 C 64.12,188.975,35,159.855,35,123.975 L 35,123.975 C 35,88.095,64.12,59,100,59 Z" fill="#c8c8c8" />
<clipPath id="32281d2b-725a-47ca-86eb-c82c9d840aeb"><path d="M 100,64 L 100,64 C 133.12,64,160,91,160,123.975 L 160,123.975 C 160,157.095,133.12,183.975,100,183.975 L 100,183.975 C 66.88,183.975,40,157.095,40,123.975 L 40,123.975 C 40,91,66.88,64,100,64 Z" /></clipPath>
<path d="M 100,64 L 100,64 C 133.12,64,160,91,160,123.975 L 160,123.975 C 160,157.095,133.12,183.975,100,183.975 L 100,183.975 C 66.88,183.975,40,157.095,40,123.975 L 40,123.975 C 40,91,66.88,64,100,64 Z" fill="#c8c8c8" />
</svg>